<?xml version="1.0" standalone="no"?>
<!DOCTYPE svg PUBLIC "-//W3C//DTD SVG 20010904//EN"
 "http://www.w3.org/TR/2001/REC-SVG-20010904/DTD/svg10.dtd">
<svg version="1.0" xmlns="http://www.w3.org/2000/svg"
 width="943.000000pt" height="943.000000pt" viewBox="0 0 943.000000 943.000000"
 preserveAspectRatio="xMidYMid meet">
<metadata>
Created by potrace 1.14, written by Peter Selinger 2001-2017
</metadata>
<g transform="translate(0.000000,943.000000) scale(0.100000,-0.100000)"
fill="#000000" stroke="none">
<path d="M2314 9417 c3 -10 6 -21 6 -23 0 -2 10 -4 23 -3 15 0 17 2 7 6 -8 4
-21 13 -28 22 -12 14 -13 14 -8 -2z"/>
<path d="M2850 9416 c0 -8 -13 -28 -30 -44 -27 -28 -67 -42 -132 -47 -15 -1
-33 -6 -40 -12 -7 -6 -24 -10 -38 -8 -14 1 -39 3 -56 4 -31 1 -32 2 -24 36 8
33 7 35 -27 41 -18 4 -36 4 -39 1 -4 -3 0 -22 6 -43 11 -33 11 -39 -6 -51 -10
-7 -24 -13 -31 -13 -7 0 -13 -4 -13 -10 0 -5 -9 -10 -20 -10 -11 0 -20 5 -20
12 0 6 -3 8 -6 5 -4 -4 -1 -13 6 -22 8 -9 8 -15 2 -15 -6 0 -14 4 -17 10 -4 6
-15 4 -30 -6 -29 -19 -61 -11 -70 17 -8 26 -29 25 -22 -2 4 -15 2 -19 -9 -15
-8 3 -22 9 -31 12 -17 5 -17 5 0 -9 21 -17 22 -27 2 -27 -8 0 -15 5 -15 10 0
6 -6 5 -14 -2 -10 -9 -11 -15 -2 -21 6 -4 -1 -5 -15 -2 -21 5 -31 1 -47 -19
-13 -17 -26 -24 -36 -20 -12 4 -16 0 -16 -15 0 -25 -25 -28 -35 -3 -7 16 -8
15 -15 -3 -14 -33 -11 -45 10 -45 17 0 19 -4 14 -27 -8 -35 -22 -53 -41 -53
-7 0 -16 -7 -19 -15 -4 -8 -9 -13 -14 -10 -9 5 -70 -69 -70 -85 0 -6 -5 -8
-12 -4 -7 4 -8 3 -4 -4 4 -6 3 -19 -2 -29 -21 -42 -41 -90 -47 -110 -3 -13 -9
-23 -13 -23 -4 0 -8 -10 -8 -23 -6 -93 -46 -187 -81 -187 -11 0 -14 -7 -10
-26 6 -33 -20 -149 -38 -164 -7 -6 -30 -13 -51 -15 -22 -2 -41 -4 -44 -4 -11
-2 -41 -61 -36 -70 10 -16 -5 -41 -25 -41 -16 0 -17 -3 -7 -25 9 -19 9 -28 0
-37 -9 -9 -12 -8 -12 4 0 9 -10 18 -21 21 -15 4 -20 11 -16 21 8 21 -16 21
-33 1 -10 -12 -10 -15 0 -15 9 0 10 -10 6 -32 -4 -18 -7 -41 -7 -50 0 -18 -8
-21 -39 -19 -10 0 -11 -1 -2 -5 6 -3 12 -21 12 -40 0 -40 -19 -45 -50 -12 -29
32 -33 17 -12 -47 l19 -57 -38 38 c-29 29 -39 34 -39 21 0 -16 -7 -17 -54 -13
-50 5 -54 4 -49 -14 3 -11 8 -20 12 -20 4 0 8 -11 9 -25 2 -25 -8 -30 -50 -27
-24 2 -23 -10 2 -28 18 -13 18 -16 5 -37 -19 -28 -19 -33 -1 -33 7 0 19 -7 26
-15 10 -12 6 -13 -24 -8 -40 6 -43 1 -22 -39 9 -16 11 -30 5 -33 -17 -11 -9
-23 20 -33 32 -11 71 -46 71 -62 0 -6 -11 -22 -25 -36 -20 -20 -29 -23 -44
-14 -12 6 -29 7 -42 2 -20 -8 -18 -10 18 -15 22 -4 46 -13 53 -21 13 -16 6
-36 -13 -36 -7 0 -18 -4 -26 -9 -11 -7 -8 -17 17 -47 18 -21 32 -46 32 -56 0
-23 20 -34 21 -11 0 10 21 33 45 51 44 31 45 32 42 10 -2 -18 2 -24 20 -26 16
-3 22 -8 18 -19 -3 -8 -6 -16 -6 -19 0 -2 -13 -10 -29 -19 -26 -13 -29 -19
-24 -49 6 -41 -11 -97 -37 -121 -11 -10 -20 -26 -20 -36 0 -9 -6 -19 -12 -22
-9 -3 -7 -9 7 -20 19 -15 19 -16 2 -51 -9 -20 -17 -45 -17 -54 0 -10 -5 -23
-12 -30 -6 -6 -17 -27 -24 -47 -9 -28 -9 -35 1 -35 21 0 46 -48 43 -85 -1 -22
5 -42 17 -56 l20 -22 -23 12 c-12 7 -28 21 -35 31 -18 30 -22 25 -24 -30 -3
-48 -2 -50 23 -50 22 0 24 -3 18 -22 -4 -13 -9 -25 -13 -28 -6 -5 -9 -30 -14
-110 -2 -26 -6 -51 -10 -56 -3 -6 1 -23 9 -38 7 -16 14 -39 14 -52 0 -12 5
-26 10 -29 6 -4 9 -19 8 -35 -1 -16 -4 -27 -7 -25 -2 3 -10 -4 -18 -15 -8 -11
-20 -17 -29 -13 -8 3 -21 -3 -29 -13 -17 -22 -19 -38 -5 -29 6 4 10 -6 10 -23
0 -16 9 -37 20 -47 26 -23 28 -67 2 -58 -9 3 -24 12 -32 19 -16 13 -73 8 -65
-6 3 -5 15 -6 28 -2 20 5 21 4 8 -12 -10 -12 -22 -15 -39 -11 -13 3 -21 2 -18
-3 3 -5 -5 -14 -17 -21 -26 -14 -83 1 -72 19 3 5 1 10 -4 10 -6 0 -11 -4 -11
-9 0 -5 -8 -7 -19 -4 -10 3 -22 0 -25 -5 -4 -7 -17 -7 -36 -2 -18 5 -30 5 -30
-1 0 -5 10 -9 23 -9 12 -1 36 -7 52 -15 30 -13 29 -13 -28 -14 -41 -1 -59 -5
-63 -16 -4 -8 -17 -15 -31 -15 -13 0 -21 -4 -18 -10 3 -5 15 -10 25 -10 43 0
76 -71 44 -94 -10 -8 -24 -12 -30 -9 -7 2 -15 0 -19 -6 -3 -7 3 -12 17 -13 13
0 28 -2 33 -3 6 -2 19 -4 30 -5 15 -1 12 -4 -10 -10 -16 -5 -40 -12 -52 -15
-15 -5 -23 -3 -23 4 0 8 -7 7 -22 -3 -12 -9 -32 -16 -44 -16 -14 0 -24 -8 -27
-21 -3 -11 -15 -23 -26 -26 -12 -3 -21 -14 -21 -24 0 -11 -4 -19 -10 -19 -5 0
-10 9 -10 19 0 11 -4 23 -10 26 -5 3 -10 -3 -10 -14 0 -14 -5 -19 -15 -15 -17
7 -21 -21 -5 -31 5 -3 7 -12 3 -20 -3 -8 0 -15 6 -15 6 0 11 -5 11 -11 0 -6
-7 -9 -15 -5 -8 3 -15 1 -15 -4 0 -6 5 -10 11 -10 5 0 7 -5 4 -10 -3 -6 2 -13
12 -17 14 -6 11 -9 -15 -13 -33 -5 -34 -5 -15 -26 10 -11 32 -26 48 -34 26
-11 30 -18 30 -51 0 -21 -3 -33 -7 -26 -10 17 -17 5 -9 -17 7 -18 8 -18 28 3
19 21 53 21 53 -1 0 -5 6 -6 12 -2 9 5 10 4 3 -4 -5 -5 -19 -12 -30 -14 -24
-4 -34 -54 -14 -72 9 -8 10 -8 5 2 -4 6 -2 12 3 12 6 0 11 -6 11 -14 0 -8 9
-17 19 -21 10 -3 21 -14 24 -25 5 -18 81 -58 100 -52 19 6 39 -30 34 -61 -5
-39 15 -64 33 -42 20 24 35 17 49 -21 9 -26 10 -39 2 -47 -22 -22 -12 -70 20
-103 27 -27 29 -35 19 -53 -9 -18 -7 -27 8 -49 11 -15 27 -43 35 -62 9 -19 26
-51 39 -70 15 -23 17 -30 6 -22 -12 10 -22 11 -35 3 -17 -8 -19 -23 -21 -101
-1 -88 0 -93 35 -147 19 -30 43 -58 53 -60 26 -7 31 -38 9 -51 -26 -16 -26
-16 -34 25 -8 44 -42 96 -57 87 -12 -8 -5 -70 19 -166 16 -65 16 -69 -1 -81
-14 -10 -17 -22 -14 -47 3 -21 -6 -67 -23 -124 -16 -50 -29 -99 -29 -109 0
-10 -7 -28 -15 -40 -21 -33 -36 -275 -20 -330 11 -38 17 -44 69 -64 l57 -22 9
25 10 25 24 -25 c13 -15 31 -26 40 -26 10 0 15 -4 12 -8 -3 -5 22 -16 55 -26
33 -9 57 -21 54 -26 -4 -7 -13 -7 -24 0 -15 7 -18 6 -17 -8 1 -11 -5 -16 -17
-14 -21 4 -22 -11 -2 -28 10 -8 30 -10 59 -6 34 5 45 4 49 -9 4 -8 13 -15 22
-15 8 0 15 -5 15 -11 0 -5 5 -7 10 -4 24 15 7 -25 -20 -48 -20 -18 -51 -29
-102 -37 -40 -6 -90 -18 -111 -26 -21 -8 -147 -42 -280 -75 -133 -34 -247 -65
-254 -70 -13 -12 -52 -24 -158 -50 -87 -21 -226 -68 -296 -98 -24 -10 -64 -22
-89 -26 -25 -4 -51 -12 -57 -17 -10 -8 -13 -308 -13 -1439 l0 -1429 2248 0
2248 0 -4 61 c-4 56 -2 64 19 80 51 40 58 19 33 -109 l-6 -32 396 0 397 0 -63
83 c-65 86 -214 241 -260 271 -16 10 -28 22 -28 25 0 4 26 36 57 72 32 35 48
56 36 46 -19 -17 -26 -17 -58 -7 -62 21 -83 102 -36 144 28 25 54 15 119 -46
33 -30 75 -66 94 -79 l33 -24 -23 32 c-12 17 -52 57 -88 89 -82 72 -88 84 -71
127 8 18 17 63 21 101 5 41 13 69 21 72 23 9 112 -44 146 -86 18 -22 51 -51
73 -63 46 -25 54 -44 55 -134 2 -98 9 -108 85 -123 61 -11 68 -15 100 -59 18
-25 41 -60 50 -78 15 -30 107 -125 114 -118 2 1 -4 31 -13 66 -21 83 -84 212
-140 288 -25 34 -45 70 -45 80 0 11 -5 32 -11 48 -17 43 -19 73 -25 291 -5
160 -3 218 9 275 9 40 18 99 22 132 12 119 26 164 68 211 21 24 47 44 58 44
10 0 41 -20 69 -45 66 -58 100 -75 153 -75 35 0 49 -6 71 -29 16 -17 26 -36
23 -44 -3 -9 3 -23 14 -33 10 -9 19 -27 19 -40 0 -27 11 -36 65 -49 29 -7 40
-15 40 -29 0 -13 10 -22 27 -27 41 -11 86 -47 90 -71 2 -14 12 -24 28 -28 15
-4 24 -12 22 -22 -1 -8 9 -20 23 -26 20 -9 25 -19 25 -46 0 -28 7 -40 30 -58
17 -12 29 -29 28 -38 -2 -8 7 -20 21 -25 40 -18 37 -63 -13 -194 -68 -177
-133 -319 -260 -566 -64 -124 -116 -228 -116 -230 0 -3 774 -5 1720 -5 l1720
0 0 4715 0 4715 -3290 0 c-2833 0 -3290 -2 -3290 -14z m1304 -72 c5 -14 4 -15
-9 -4 -17 14 -19 20 -6 20 5 0 12 -7 15 -16z m-1604 -54 c0 -16 55 -39 86 -37
38 3 44 -30 14 -78 -23 -38 -40 -38 -40 0 0 30 -10 37 -33 20 -15 -11 -16 -13
-2 -19 25 -9 17 -25 -27 -47 -40 -20 -42 -20 -55 -3 -7 10 -13 22 -13 27 0 5
-9 16 -20 25 -19 17 -18 18 28 69 47 51 62 62 62 43z m-175 -74 c31 -13 35
-19 35 -50 0 -26 6 -38 21 -47 12 -6 17 -15 12 -20 -13 -13 -83 10 -89 29 -3
9 -12 32 -20 50 -13 30 -12 52 2 52 3 0 20 -7 39 -14z m-155 -26 c0 -5 -2 -10
-4 -10 -3 0 -8 5 -11 10 -3 6 -1 10 4 10 6 0 11 -4 11 -10z m-135 -120 c-3 -5
-11 -10 -16 -10 -6 0 -7 5 -4 10 3 6 11 10 16 10 6 0 7 -4 4 -10z m346 -10
c33 -14 62 -19 81 -15 21 5 30 2 34 -10 12 -31 -11 -39 -63 -22 -26 8 -63 13
-80 10 -35 -6 -51 12 -39 42 7 19 5 19 67 -5z m2043 -555 c122 -26 178 -59
431 -254 68 -52 177 -123 207 -133 15 -6 25 -14 22 -19 -5 -9 6 -15 89 -44 60
-21 222 -142 304 -226 57 -59 63 -69 73 -129 7 -36 14 -75 16 -86 2 -12 19
-45 38 -73 19 -28 38 -65 41 -83 4 -18 20 -67 36 -108 16 -41 29 -75 29 -76 0
-7 -48 11 -60 22 -9 7 -36 16 -60 20 -25 4 -53 11 -62 15 -15 8 -107 22 -133
20 -106 -7 -148 -15 -152 -31 -5 -20 -66 -37 -71 -20 -7 20 -63 10 -130 -24
-37 -18 -87 -37 -112 -41 -25 -4 -63 -16 -84 -27 -33 -17 -45 -18 -74 -10 -46
14 -102 -7 -102 -38 0 -12 -4 -19 -9 -15 -15 8 -31 -29 -31 -69 0 -29 -3 -34
-17 -29 -10 3 -25 12 -35 20 -19 16 -31 4 -17 -17 15 -25 10 -31 -23 -28 -31
3 -33 1 -30 -27 2 -20 15 -41 40 -63 34 -30 41 -33 87 -28 28 2 58 7 67 11 13
5 23 -2 38 -27 31 -51 26 -63 -41 -99 -34 -18 -90 -59 -125 -91 -69 -63 -111
-88 -133 -80 -8 2 -11 0 -7 -6 4 -6 -2 -8 -16 -4 -14 3 -19 1 -14 -6 6 -10
-75 -30 -98 -24 -4 2 -13 -1 -20 -6 -6 -5 -28 -7 -48 -5 -32 5 -42 13 -77 67
-33 50 -59 114 -86 213 -6 18 -111 94 -152 109 -35 12 -39 11 -52 -6 -13 -19
-14 -19 -51 0 -22 11 -45 18 -52 16 -183 -55 -312 -79 -378 -70 -86 11 -155
-15 -276 -105 -22 -16 -38 -21 -54 -16 -21 7 -22 10 -15 84 4 42 8 162 9 267
1 186 2 191 27 230 19 29 29 64 38 139 8 55 19 111 26 125 7 14 16 59 20 100
9 85 30 124 124 224 71 74 165 121 345 171 33 9 85 29 115 44 31 16 74 31 95
35 42 8 58 19 146 96 30 27 78 67 105 89 28 21 57 50 64 63 17 33 106 77 156
77 22 0 71 -6 109 -14z m-3175 -559 c9 -11 7 -13 -11 -11 -33 4 -34 4 -18 15
19 12 16 12 29 -4z m-49 -432 c0 -12 -6 -15 -22 -10 -13 3 -27 6 -33 6 -5 0
-3 5 5 10 23 15 50 12 50 -6z m39 -60 c14 -12 -19 -1 -35 12 -18 14 -18 14 6
3 14 -6 27 -13 29 -15z m4731 -394 c0 -5 -21 -9 -47 -8 l-48 1 45 7 c25 4 46
8 48 8 1 1 2 -2 2 -8z m-221 -9 c7 -5 9 -11 4 -14 -14 -9 -54 4 -47 14 7 11
25 11 43 0z m-129 -21 c0 -5 -11 -10 -24 -10 -14 0 -37 -5 -53 -11 -15 -6 -55
-12 -88 -14 -33 -2 -68 -7 -78 -11 -10 -3 -21 -4 -24 0 -10 10 -1 14 42 20 22
3 58 8 80 11 22 3 54 9 70 14 41 13 75 13 75 1z m-173 -194 c51 -25 71 -40 67
-50 -8 -21 -76 -30 -132 -18 -26 6 -84 13 -130 16 -96 6 -137 22 -119 47 28
38 69 50 157 46 74 -4 95 -9 157 -41z m-4167 -83 c0 -23 -4 -33 -9 -27 -9 8
-4 64 5 64 2 0 4 -17 4 -37z m3463 -141 c5 -7 26 -21 47 -32 33 -17 39 -25 42
-57 3 -34 7 -39 38 -49 25 -8 36 -18 38 -35 7 -55 29 -67 155 -83 155 -20 251
-10 284 32 13 15 23 30 23 34 0 16 89 19 153 4 85 -20 108 -20 212 0 l84 17
52 -47 c29 -26 70 -56 90 -67 28 -14 39 -27 44 -51 4 -18 16 -50 26 -70 11
-21 19 -58 19 -85 0 -27 5 -64 10 -83 6 -19 13 -80 16 -135 3 -55 10 -116 16
-135 5 -19 13 -92 17 -161 7 -119 9 -130 39 -176 18 -27 32 -62 32 -77 0 -45
37 -104 78 -125 34 -17 40 -18 74 -4 66 27 72 18 65 -105 -7 -139 -61 -357
-122 -493 -25 -54 -45 -102 -45 -105 0 -7 -108 -185 -163 -267 -40 -61 -46
-77 -52 -145 -4 -43 -14 -90 -22 -106 -13 -25 -14 -39 -4 -79 14 -63 14 -152
-1 -217 l-12 -52 34 -28 c33 -27 36 -27 64 -13 24 12 30 13 37 1 16 -24 9 -50
-21 -88 -17 -21 -30 -50 -30 -65 0 -15 -7 -55 -16 -88 -15 -58 -15 -99 1 -187
5 -25 0 -54 -15 -95 -63 -169 -20 -177 108 -23 85 103 128 145 173 168 20 11
39 26 42 33 3 8 18 18 34 21 15 4 45 23 65 43 39 38 75 40 63 4 -5 -16 2 -19
46 -24 57 -7 70 -15 111 -71 24 -33 28 -49 28 -103 0 -36 -9 -101 -21 -146
-30 -117 -39 -169 -49 -282 -6 -55 -13 -119 -16 -143 -4 -28 0 -64 10 -101 9
-32 16 -85 15 -117 -1 -70 3 -104 15 -122 5 -8 2 -20 -8 -31 -21 -23 -20 -37
5 -72 18 -25 18 -30 5 -35 -9 -3 -22 -4 -29 -1 -19 7 -16 -145 3 -168 12 -15
12 -19 -1 -29 -20 -14 -49 -133 -52 -208 -2 -47 -7 -62 -31 -87 -15 -16 -25
-34 -22 -39 10 -16 -24 -215 -40 -233 -8 -8 -14 -25 -14 -36 0 -54 -23 -39
-190 117 -205 194 -334 322 -468 466 -67 72 -150 151 -184 175 -33 24 -75 56
-92 70 -17 15 -55 38 -84 53 -47 24 -57 25 -93 16 -29 -8 -65 -8 -127 -1 -48
6 -122 11 -164 11 -75 0 -102 11 -55 24 12 3 82 3 155 -1 89 -4 132 -3 132 4
0 6 -26 14 -57 17 -32 4 -109 16 -172 28 l-115 22 -73 -39 c-99 -54 -238 -171
-418 -351 -186 -187 -405 -421 -405 -433 0 -16 30 -41 48 -41 9 0 37 -14 62
-30 25 -16 49 -30 54 -30 5 0 17 -7 27 -16 10 -9 42 -19 71 -23 41 -5 53 -10
52 -23 -1 -10 11 -22 27 -29 16 -6 39 -25 51 -42 20 -27 20 -31 5 -42 -14 -10
-11 -14 23 -24 22 -7 56 -26 75 -42 28 -25 34 -36 29 -55 -5 -19 -2 -24 13
-24 32 0 45 -21 27 -41 -19 -21 -7 -50 32 -75 29 -20 58 -70 48 -85 -3 -6 -13
-38 -20 -72 -8 -34 -25 -78 -38 -98 -31 -46 -181 -342 -223 -437 -18 -41 -36
-71 -41 -68 -6 3 -38 70 -72 148 -35 79 -73 166 -85 193 -13 28 -47 106 -75
175 -29 69 -76 181 -105 250 -48 113 -79 197 -166 445 -50 146 -99 310 -99
333 0 13 -11 68 -25 123 -14 55 -28 142 -32 193 l-6 93 74 6 c54 5 77 3 89 -7
39 -34 59 -38 89 -15 16 12 34 18 40 15 6 -4 20 -2 32 5 18 9 24 8 31 -4 4 -9
23 -19 41 -22 17 -4 35 -12 39 -18 8 -13 56 17 65 40 3 9 1 24 -5 34 -7 10
-12 41 -12 69 0 27 -7 68 -16 90 -12 29 -15 56 -11 91 4 32 1 61 -8 84 -18 42
-19 123 -2 161 24 56 49 84 73 84 14 0 50 14 81 30 90 48 96 46 245 -72 162
-130 175 -136 260 -130 44 2 85 11 103 22 17 10 50 21 75 25 25 4 61 15 80 25
19 9 47 20 62 24 33 8 68 62 68 108 0 25 8 42 29 62 17 16 32 44 36 64 4 21
21 52 40 72 30 32 33 42 38 115 6 80 6 80 -34 142 l-39 62 8 128 c5 70 7 131
5 135 -2 5 -19 0 -36 -9 -40 -21 -257 -30 -332 -14 -121 25 -183 44 -229 68
-55 29 -81 31 -240 15 l-108 -11 -81 40 c-44 23 -94 55 -112 72 -18 18 -45 43
-61 57 -62 55 -180 196 -195 234 -16 38 -19 41 -52 38 -37 -3 -57 11 -190 131
-141 127 -175 169 -228 277 -59 121 -61 126 -106 200 -18 30 -38 73 -44 95 -6
22 -23 56 -38 75 -29 37 -46 103 -56 222 -3 37 -14 88 -25 113 -14 32 -22 88
-30 193 -9 130 -23 211 -44 263 -6 13 1 18 35 23 65 10 95 32 126 88 36 67 67
88 139 97 33 4 70 14 84 23 14 9 59 26 101 37 90 25 117 19 149 -37 19 -31 24
-34 53 -28 18 3 37 13 43 21 10 13 13 13 25 -1 12 -15 15 -14 31 6 20 24 66
40 120 40 30 0 41 6 59 33 13 17 40 53 61 78 21 26 38 54 38 62 0 11 8 15 27
14 23 -2 28 3 38 43 7 25 17 97 24 160 22 215 15 193 75 223 30 15 78 30 112
33 73 8 95 -7 143 -93 66 -119 102 -173 116 -173 24 0 18 25 -31 123 -38 74
-48 105 -52 159 -4 63 -3 69 27 105 17 20 46 45 63 54 l33 17 5 -46 c3 -26 9
-53 13 -60z m-3465 73 c-3 -3 -9 2 -12 12 -6 14 -5 15 5 6 7 -7 10 -15 7 -18z
m2 -97 c-1 -31 -2 -32 -15 -15 -7 11 -11 25 -8 33 10 25 23 15 23 -18z m20
-109 c0 -5 -4 -9 -10 -9 -5 0 -10 7 -10 16 0 8 5 12 10 9 6 -3 10 -10 10 -16z
m-357 -543 c3 -8 -2 -20 -11 -27 -14 -11 -15 -11 -5 0 6 7 9 20 6 27 -3 8 -3
14 0 14 3 0 7 -6 10 -14z m0 -123 c-7 -2 -19 -2 -25 0 -7 3 -2 5 12 5 14 0 19
-2 13 -5z m-149 -48 c5 -13 2 -14 -17 -4 -32 17 -33 19 -10 19 12 0 23 -7 27
-15z m-4 -60 c0 -8 -6 -15 -12 -15 -9 0 -8 -4 2 -10 13 -9 13 -10 0 -10 -8 0
-22 5 -30 10 -13 8 -12 11 5 24 26 20 35 20 35 1z m40 5 c-19 -13 -30 -13 -30
0 0 6 10 10 23 10 18 0 19 -2 7 -10z m-150 -50 c0 -5 -9 -6 -20 -3 -11 3 -20
9 -20 13 0 5 9 6 20 3 11 -3 20 -9 20 -13z m170 -2 c0 -13 -23 -5 -28 10 -2 7
2 10 12 6 9 -3 16 -11 16 -16z m-30 -19 c0 -5 -6 -9 -14 -9 -8 0 -16 -4 -18
-9 -1 -5 -19 -12 -38 -16 -33 -7 -34 -6 -15 9 11 8 27 16 36 16 9 0 20 7 23
16 6 15 26 11 26 -7z m-90 -4 c-7 -8 -16 -15 -21 -15 -5 0 -9 7 -9 15 0 9 9
15 21 15 18 0 19 -2 9 -15z m-135 -15 c14 -16 15 -20 4 -20 -16 0 -39 19 -39
32 0 14 16 9 35 -12z m229 -16 c29 -11 17 -21 -21 -19 -49 3 -53 5 -23 15 14
4 26 8 27 9 1 1 8 -2 17 -5z m-189 -34 c3 -5 1 -10 -4 -10 -6 0 -11 5 -11 10
0 6 2 10 4 10 3 0 8 -4 11 -10z m215 -14 c0 -3 -4 -8 -10 -11 -5 -3 -10 -1
-10 4 0 6 5 11 10 11 6 0 10 -2 10 -4z m-13 -283 c-3 -10 -5 -4 -5 12 0 17 2
24 5 18 2 -7 2 -21 0 -30z m183 -323 c0 -5 -2 -10 -4 -10 -3 0 -8 5 -11 10 -3
6 -1 10 4 10 6 0 11 -4 11 -10z m4152 -2819 c24 -10 60 -37 82 -59 l38 -40
-23 -15 c-13 -8 -52 -24 -86 -36 -56 -21 -65 -22 -110 -9 -43 12 -48 17 -51
46 -3 27 2 35 28 50 27 15 31 21 26 50 -4 30 -3 32 24 32 15 0 48 -9 72 -19z
m-242 -146 c31 -37 -23 -61 -68 -29 -27 18 -28 31 -4 37 35 9 60 7 72 -8z
m371 -47 c10 -13 18 -39 19 -59 0 -31 -5 -37 -35 -52 -52 -25 -59 -22 -78 32
-23 65 -22 75 11 88 43 17 62 15 83 -9z m-197 -58 c44 -47 76 -95 76 -113 0
-33 -164 -33 -191 0 -10 12 -8 18 13 36 34 28 58 77 59 119 1 21 3 26 6 13 3
-11 19 -36 37 -55z m213 -592 c12 -14 25 -51 33 -96 12 -73 12 -74 -13 -100
-13 -15 -32 -40 -42 -55 -15 -23 -23 -27 -44 -22 -48 13 -156 36 -216 46 -33
6 -63 14 -67 18 -19 17 54 74 166 130 65 33 125 69 133 80 18 26 25 26 50 -1z
m-120 -303 c19 -8 44 -15 54 -15 11 0 19 -4 19 -9 0 -5 -28 -12 -62 -16 -53
-6 -63 -5 -75 11 -32 43 -3 57 64 29z m10 -137 c25 -24 30 -48 10 -48 -11 0
-47 49 -47 64 0 12 14 6 37 -16z"/>
<path d="M4116 5891 c-7 -10 10 -61 19 -61 14 0 74 53 69 61 -7 12 -81 12 -88
0z"/>
<path d="M4890 5442 c-25 -12 -36 -25 -38 -43 -3 -22 2 -27 29 -33 40 -8 93
-8 113 0 11 4 16 19 16 44 0 31 -4 39 -22 44 -38 10 -61 7 -98 -12z"/>
<path d="M4340 5393 c-40 -17 -103 -69 -127 -104 -26 -40 -26 -41 -8 -72 50
-89 138 -147 221 -147 52 0 90 18 154 70 25 20 62 47 83 59 42 25 40 37 -9 57
-28 12 -34 20 -34 44 0 50 -72 84 -200 94 -36 3 -72 3 -80 -1z"/>
<path d="M5295 4813 c-64 -8 -80 -14 -64 -24 13 -9 132 -4 173 8 15 4 16 7 5
14 -14 9 -56 9 -114 2z"/>
<path d="M4450 4744 c-59 -28 -125 -51 -175 -61 -114 -22 -118 -24 -153 -96
-38 -77 -39 -88 -9 -123 l23 -27 46 27 c24 14 52 26 61 26 10 0 69 27 133 60
139 73 266 117 361 126 85 8 97 14 88 43 -9 31 -37 42 -129 52 -44 5 -97 11
-116 14 -28 4 -55 -4 -130 -41z"/>
<path d="M4815 4416 c-45 -8 -61 -16 -63 -30 -2 -10 0 -22 5 -27 7 -7 161 25
172 37 8 8 -22 34 -38 33 -9 -1 -43 -6 -76 -13z"/>
<path d="M5668 3815 c-53 -48 -60 -65 -25 -65 33 0 79 51 75 83 -3 25 -3 25
-50 -18z"/>
<path d="M5826 2723 c-8 -16 -28 -41 -45 -57 -29 -28 -43 -81 -25 -99 16 -15
75 38 134 120 24 34 24 35 5 49 -29 21 -53 17 -69 -13z"/>
<path d="M2265 9380 c-3 -5 -2 -10 4 -10 5 0 13 5 16 10 3 6 2 10 -4 10 -5 0
-13 -4 -16 -10z"/>
<path d="M2144 9281 c20 -22 26 -25 26 -13 0 4 -10 13 -22 21 -23 14 -23 14
-4 -8z"/>
<path d="M1980 9059 c0 -18 2 -19 15 -9 8 7 15 16 15 21 0 5 -7 9 -15 9 -9 0
-15 -9 -15 -21z"/>
<path d="M932 7797 c-12 -13 -22 -36 -22 -51 0 -15 -7 -50 -16 -77 -11 -32
-13 -54 -7 -60 6 -6 20 30 40 101 16 60 29 110 28 110 -1 0 -11 -10 -23 -23z"/>
<path d="M1178 7263 c-10 -2 -18 -8 -18 -13 0 -4 -9 -10 -19 -13 -34 -8 -29
-109 6 -130 7 -4 13 -17 13 -27 0 -23 13 -26 27 -7 8 11 19 198 12 196 -2 -1
-12 -3 -21 -6z"/>
<path d="M1140 6839 c0 -5 5 -7 10 -4 6 3 10 8 10 11 0 2 -4 4 -10 4 -5 0 -10
-5 -10 -11z"/>
<path d="M1140 6690 c0 -5 5 -10 10 -10 6 0 10 5 10 10 0 6 -4 10 -10 10 -5 0
-10 -4 -10 -10z"/>
<path d="M1150 6609 c0 -5 5 -7 10 -4 6 3 10 8 10 11 0 2 -4 4 -10 4 -5 0 -10
-5 -10 -11z"/>
<path d="M590 5770 c-9 -6 -10 -10 -3 -10 6 0 15 5 18 10 8 12 4 12 -15 0z"/>
<path d="M648 5303 c-3 -10 2 -26 10 -35 13 -16 13 -18 -2 -24 -10 -4 -36 7
-69 30 -29 20 -56 36 -60 36 -4 0 -7 -13 -7 -30 0 -23 5 -30 19 -30 11 0 23
-4 26 -10 3 -5 15 -10 26 -10 15 0 19 -7 19 -34 0 -22 6 -36 16 -40 27 -10 69
-7 89 8 18 13 18 14 -8 9 -16 -3 -27 -1 -27 6 0 6 6 11 14 11 26 0 29 21 7 51
-11 15 -21 35 -21 42 0 8 -6 20 -14 26 -11 10 -15 8 -18 -6z"/>
<path d="M955 4650 c-7 -12 21 -80 34 -80 10 0 41 39 41 52 0 7 -52 38 -64 38
-3 0 -7 -4 -11 -10z"/>
<path d="M928 4544 c-5 -4 -8 -25 -8 -46 0 -44 15 -55 57 -41 29 10 52 58 36
74 -13 13 -76 23 -85 13z"/>
<path d="M1144 3421 c20 -22 26 -25 26 -13 0 4 -10 13 -22 21 -23 14 -23 14
-4 -8z"/>
<path d="M1268 3333 c7 -3 16 -2 19 1 4 3 -2 6 -13 5 -11 0 -14 -3 -6 -6z"/>
<path d="M1330 3299 c0 -5 5 -7 10 -4 6 3 10 8 10 11 0 2 -4 4 -10 4 -5 0 -10
-5 -10 -11z"/>
<path d="M5722 170 c0 -14 2 -19 5 -12 2 6 2 18 0 25 -3 6 -5 1 -5 -13z"/>
<path d="M5729 60 c-5 -55 -4 -68 7 -58 3 3 4 30 2 59 l-3 54 -6 -55z"/>
</g>
</svg>
